<?xml version="1.0" encoding="utf-8"?>
<!-- Generator: Adobe Illustrator 28.1.0, SVG Export Plug-In . SVG Version: 6.00 Build 0)  -->
<svg version="1.1" id="Capa_4" xmlns="http://www.w3.org/2000/svg" xmlns:xlink="http://www.w3.org/1999/xlink" x="0px" y="0px"
	 width="90px" height="270px" viewBox="0 0 90 270" style="enable-background:new 0 0 90 270;" xml:space="preserve">
<style type="text/css">
	.st0{fill:#FFFFFF;}
</style>
<g>
	<path class="st0" d="M56.6,46.5c1.4,1.7,2.1,3.7,2.1,6.1c0,2-0.6,3.9-1.7,5.6s-2.8,3.2-5.1,4.2c-2.3,1.1-5.2,1.6-8.6,1.6
		c-2.4,0-4.7-0.3-7.1-0.8s-4.4-1.3-6.2-2.3l3.8-8.4c1.4,0.8,2.9,1.4,4.4,1.8c1.6,0.4,3.1,0.6,4.6,0.6c1.3,0,2.4-0.2,3.2-0.7
		c0.8-0.4,1.2-1.1,1.2-1.9c0-1.5-1.3-2.3-4-2.3h-4.5v-7l4.9-5h-12v-8.5h25.1v7l-6,6.5C53.3,43.7,55.2,44.8,56.6,46.5z"/>
</g>
<g>
	<path class="st0" d="M59,143.5v8.8H32.1v-7l12.1-11.2c1.1-1,1.8-1.8,2.1-2.5c0.4-0.7,0.5-1.4,0.5-2.1c0-0.8-0.3-1.5-0.8-1.9
		c-0.6-0.5-1.4-0.7-2.4-0.7s-2,0.3-2.9,0.8c-0.9,0.5-1.6,1.3-2.1,2.3l-8.5-4.3c1.3-2.4,3.2-4.3,5.6-5.7c2.5-1.4,5.4-2.1,8.9-2.1
		c2.7,0,5,0.4,7.1,1.3c2,0.9,3.6,2.1,4.8,3.7s1.7,3.4,1.7,5.5c0,1.9-0.4,3.6-1.2,5.2c-0.8,1.6-2.3,3.4-4.6,5.5l-4.8,4.4L59,143.5
		L59,143.5z"/>
</g>
<g>
	<path class="st0" d="M52.3,208.7v33.6H41v-25.1h-5.8v-8.5L52.3,208.7L52.3,208.7z"/>
</g>
</svg>
