<?xml version="1.0" encoding="utf-8"?>
<!-- Generator: Adobe Illustrator 28.0.0, SVG Export Plug-In . SVG Version: 6.00 Build 0)  -->
<svg version="1.1" id="Capa_1" xmlns="http://www.w3.org/2000/svg" xmlns:xlink="http://www.w3.org/1999/xlink" x="0px" y="0px"
	 viewBox="0 0 50 50" style="enable-background:new 0 0 50 50;" xml:space="preserve">
<style type="text/css">
	.st0{fill:#FFFFFF;}
</style>
<g id="Maximize">
	<g>
		<path class="st0" d="M48.3,13.3c-0.9,0-1.7-0.7-1.7-1.7V3.3h-8.3c-0.9,0-1.7-0.7-1.7-1.7S37.4,0,38.3,0h10C49.3,0,50,0.7,50,1.7
			v10C50,12.6,49.3,13.3,48.3,13.3z"/>
	</g>
	<g>
		<path class="st0" d="M11.7,50h-10C0.7,50,0,49.3,0,48.3v-10c0-0.9,0.7-1.7,1.7-1.7s1.7,0.7,1.7,1.7v8.3h8.3c0.9,0,1.7,0.7,1.7,1.7
			S12.6,50,11.7,50z"/>
	</g>
	<g>
		<path class="st0" d="M10,41.7c-0.4,0-0.9-0.2-1.2-0.5c-0.7-0.7-0.7-1.7,0-2.4l10-10c0.7-0.7,1.7-0.7,2.4,0c0.7,0.7,0.7,1.7,0,2.4
			l-10,10C10.9,41.5,10.4,41.7,10,41.7z"/>
	</g>
	<g>
		<path class="st0" d="M30,21.7c-0.4,0-0.9-0.2-1.2-0.5c-0.7-0.7-0.7-1.7,0-2.4l10-10c0.7-0.7,1.7-0.7,2.4,0c0.7,0.7,0.7,1.7,0,2.4
			l-10,10C30.9,21.5,30.4,21.7,30,21.7z"/>
	</g>
	<g>
		<path class="st0" d="M48.3,50h-10c-0.9,0-1.7-0.7-1.7-1.7s0.7-1.7,1.7-1.7h8.3v-8.3c0-0.9,0.7-1.7,1.7-1.7c0.9,0,1.7,0.7,1.7,1.7
			v10C50,49.3,49.3,50,48.3,50z"/>
	</g>
	<g>
		<path class="st0" d="M1.7,13.3c-0.9,0-1.7-0.7-1.7-1.7v-10C0,0.7,0.7,0,1.7,0h10c0.9,0,1.7,0.7,1.7,1.7s-0.7,1.7-1.7,1.7H3.3v8.3
			C3.3,12.6,2.6,13.3,1.7,13.3z"/>
	</g>
	<g>
		<path class="st0" d="M20,21.7c-0.4,0-0.9-0.2-1.2-0.5l-10-10c-0.7-0.7-0.7-1.7,0-2.4c0.7-0.7,1.7-0.7,2.4,0l10,10
			c0.7,0.7,0.7,1.7,0,2.4C20.9,21.5,20.4,21.7,20,21.7z"/>
	</g>
	<g>
		<path class="st0" d="M40,41.7c-0.4,0-0.9-0.2-1.2-0.5l-10-10c-0.7-0.7-0.7-1.7,0-2.4c0.7-0.7,1.7-0.7,2.4,0l10,10
			c0.7,0.7,0.7,1.7,0,2.4C40.9,41.5,40.4,41.7,40,41.7z"/>
	</g>
</g>
<g>
</g>
<g>
</g>
<g>
</g>
<g>
</g>
<g>
</g>
<g>
</g>
<g>
</g>
<g>
</g>
<g>
</g>
<g>
</g>
<g>
</g>
<g>
</g>
<g>
</g>
<g>
</g>
<g>
</g>
</svg>
