<?xml version="1.0" encoding="utf-8"?>
<!-- Generator: Adobe Illustrator 28.0.0, SVG Export Plug-In . SVG Version: 6.00 Build 0)  -->
<svg version="1.1" baseProfile="tiny" xmlns="http://www.w3.org/2000/svg" xmlns:xlink="http://www.w3.org/1999/xlink" x="0px"
	 y="0px" width="240px" height="40px" viewBox="0 0 240 40" overflow="visible" xml:space="preserve">
<g id="ref" display="none">
	<g display="inline">
		<rect x="80.5" y="0.5" fill="#7A7A7A" width="39" height="39"/>
		<path d="M119,1v38H81V1H119 M120,0H80v40h40V0L120,0z"/>
	</g>
	<g display="inline">
		<rect x="120.5" y="0.5" fill="#7A7A7A" width="39" height="39"/>
		<path d="M159,1v38h-38V1H159 M160,0h-40v40h40V0L160,0z"/>
	</g>
	<g display="inline">
		<rect x="160.5" y="0.5" fill="#7A7A7A" width="39" height="39"/>
		<path d="M199,1v38h-38V1H199 M200,0h-40v40h40V0L200,0z"/>
	</g>
	<g display="inline">
		<rect x="200.5" y="0.5" fill="#7A7A7A" width="39" height="39"/>
		<path d="M239,1v38h-38V1H239 M240,0h-40v40h40V0L240,0z"/>
	</g>
	<g display="inline">
		<rect x="0.5" y="0.5" fill="#7A7A7A" width="39" height="39"/>
		<path d="M39,1v38H1V1H39 M40,0H0v40h40V0L40,0z"/>
	</g>
	<g display="inline">
		<rect x="40.5" y="0.5" fill="#7A7A7A" width="39" height="39"/>
		<path d="M79,1v38H41V1H79 M80,0H40v40h40V0L80,0z"/>
	</g>
</g>
<g id="Capa_2">
	<g>
		<g>
			<path fill="#FFFFFF" d="M90.4,14h-2.3c-1.1,0-2,0.9-2,2v10c0,1.1,0.9,2,2,2h2.6c0.5,0,1,0.2,1.4,0.6l4.8,4.8
				c0.4,0.4,0.9,0.6,1.4,0.6h0.8c1.1,0,2-0.9,2-2V8c0-1.1-0.9-2-2-2h-0.7c-0.6,0-1.2,0.3-1.6,0.8L92,13.2C91.6,13.7,91,14,90.4,14z
				 M96.7,29.3l-3.8-4.1c-0.1-0.2-0.4-0.2-0.6-0.2h-2.5c-0.4,0-0.8-0.3-0.8-0.8v-6.5c0-0.4,0.3-0.8,0.8-0.8h2.6
				c0.2,0,0.5-0.1,0.6-0.3l3.7-4.9c0.4-0.6,1.4-0.3,1.4,0.5v16.5C98.1,29.5,97.2,29.8,96.7,29.3z"/>
		</g>
		<g>
			<path fill="#FFFFFF" d="M103.1,9.9v1.6c0,0.4,0.3,0.7,0.7,0.7c3.9,0.4,7,3.7,7,7.7s-3.1,7.3-7,7.7c-0.4,0-0.7,0.3-0.7,0.7V30
				c0,0.4,0.4,0.8,0.8,0.8c5.6-0.4,10-5.1,10-10.8s-4.4-10.4-10-10.8C103.5,9.1,103.1,9.5,103.1,9.9z"/>
		</g>
		<g>
			<path fill="#FFFFFF" d="M108.5,19.9c0-2.7-1.9-4.9-4.5-5.3c-0.5-0.1-0.9,0.3-0.9,0.8v1.6c0,0.3,0.2,0.7,0.6,0.7
				c1,0.3,1.7,1.2,1.7,2.2c0,1.1-0.7,2-1.7,2.2c-0.3,0.1-0.6,0.4-0.6,0.7v1.6c0,0.5,0.4,0.9,0.9,0.8
				C106.6,24.8,108.5,22.6,108.5,19.9z"/>
		</g>
	</g>
	<g>
		<g>
			<path fill="#FFFFFF" d="M130.3,14H128c-1.1,0-2,0.9-2,2v10c0,1.1,0.9,2,2,2h2.6c0.5,0,1,0.2,1.4,0.6l4.8,4.8
				c0.4,0.4,0.9,0.6,1.4,0.6h0.8c1.1,0,2-0.9,2-2V8c0-1.1-0.9-2-2-2h-0.7c-0.6,0-1.2,0.3-1.6,0.8l-4.8,6.4
				C131.5,13.7,130.9,14,130.3,14z M136.7,29.3l-3.8-4.1c-0.1-0.2-0.4-0.2-0.6-0.2h-2.5c-0.4,0-0.8-0.3-0.8-0.8v-6.5
				c0-0.4,0.3-0.8,0.8-0.8h2.6c0.2,0,0.5-0.1,0.6-0.3l3.7-4.9c0.4-0.6,1.4-0.3,1.4,0.5v16.5C138,29.5,137.1,29.8,136.7,29.3z"/>
		</g>
		<g>
			<path fill="#FFFFFF" d="M153.8,15.8l-1.1-1.1c-0.3-0.3-0.8-0.3-1.1,0l-2.5,2.5c-0.3,0.3-0.8,0.3-1.1,0l-2.5-2.5
				c-0.3-0.3-0.8-0.3-1.1,0l-1.1,1.1c-0.3,0.3-0.3,0.8,0,1.1l2.5,2.5c0.3,0.3,0.3,0.8,0,1.1l-2.5,2.5c-0.3,0.3-0.3,0.8,0,1.1
				l1.1,1.1c0.3,0.3,0.8,0.3,1.1,0l2.5-2.5c0.3-0.3,0.8-0.3,1.1,0l2.5,2.5c0.3,0.3,0.8,0.3,1.1,0l1.1-1.1c0.3-0.3,0.3-0.8,0-1.1
				l-2.5-2.5c-0.3-0.3-0.3-0.8,0-1.1l2.5-2.5C154.1,16.6,154.1,16.1,153.8,15.8z"/>
		</g>
	</g>
	<g>
		<g>
			<path fill="#FFFFFF" d="M25,26.5H15c-0.8,0-1.5-0.7-1.5-1.5V15c0-0.8,0.7-1.5,1.5-1.5h10c0.8,0,1.5,0.7,1.5,1.5v10
				C26.5,25.8,25.8,26.5,25,26.5z M16.5,23.5h7v-7h-7V23.5z"/>
		</g>
		<g>
			<path fill="#FFFFFF" d="M6,13.5c-0.8,0-1.5-0.7-1.5-1.5V6c0-0.8,0.7-1.5,1.5-1.5h6c0.8,0,1.5,0.7,1.5,1.5S12.8,7.5,12,7.5H7.5V12
				C7.5,12.8,6.8,13.5,6,13.5z"/>
		</g>
		<g>
			<path fill="#FFFFFF" d="M34,13.5c-0.8,0-1.5-0.7-1.5-1.5V7.5H28c-0.8,0-1.5-0.7-1.5-1.5s0.7-1.5,1.5-1.5h6c0.8,0,1.5,0.7,1.5,1.5
				v6C35.5,12.8,34.8,13.5,34,13.5z"/>
		</g>
		<g>
			<path fill="#FFFFFF" d="M12,35.5H6c-0.8,0-1.5-0.7-1.5-1.5v-6c0-0.8,0.7-1.5,1.5-1.5s1.5,0.7,1.5,1.5v4.5H12
				c0.8,0,1.5,0.7,1.5,1.5S12.8,35.5,12,35.5z"/>
		</g>
		<g>
			<path fill="#FFFFFF" d="M34,35.5h-6c-0.8,0-1.5-0.7-1.5-1.5s0.7-1.5,1.5-1.5h4.5V28c0-0.8,0.7-1.5,1.5-1.5s1.5,0.7,1.5,1.5v6
				C35.5,34.8,34.8,35.5,34,35.5z"/>
		</g>
	</g>
	<g>
		<g>
			<path fill="#FFFFFF" d="M65,26.5H55c-0.8,0-1.5-0.7-1.5-1.5V15c0-0.8,0.7-1.5,1.5-1.5h10c0.8,0,1.5,0.7,1.5,1.5v10
				C66.5,25.8,65.8,26.5,65,26.5z M56.5,23.5h7v-7h-7V23.5z"/>
		</g>
		<g>
			<path fill="#FFFFFF" d="M52,13.5h-6c-0.8,0-1.5-0.7-1.5-1.5s0.7-1.5,1.5-1.5h4.5V6c0-0.8,0.7-1.5,1.5-1.5s1.5,0.7,1.5,1.5v6
				C53.5,12.8,52.8,13.5,52,13.5z"/>
		</g>
		<g>
			<path fill="#FFFFFF" d="M74,13.5h-6c-0.8,0-1.5-0.7-1.5-1.5V6c0-0.8,0.7-1.5,1.5-1.5s1.5,0.7,1.5,1.5v4.5H74
				c0.8,0,1.5,0.7,1.5,1.5S74.8,13.5,74,13.5z"/>
		</g>
		<g>
			<path fill="#FFFFFF" d="M52,35.5c-0.8,0-1.5-0.7-1.5-1.5v-4.5H46c-0.8,0-1.5-0.7-1.5-1.5s0.7-1.5,1.5-1.5h6
				c0.8,0,1.5,0.7,1.5,1.5v6C53.5,34.8,52.8,35.5,52,35.5z"/>
		</g>
		<g>
			<path fill="#FFFFFF" d="M68,35.5c-0.8,0-1.5-0.7-1.5-1.5v-6c0-0.8,0.7-1.5,1.5-1.5h6c0.8,0,1.5,0.7,1.5,1.5s-0.7,1.5-1.5,1.5
				h-4.5V34C69.5,34.8,68.8,35.5,68,35.5z"/>
		</g>
	</g>
	<g>
		<g>
			<path fill="#FFFFFF" d="M209.5,35.1c-0.3,0-0.5-0.1-0.7-0.2c-0.5-0.3-0.8-0.8-0.8-1.3V6.8c0-0.5,0.3-1,0.8-1.3
				c0.5-0.3,1-0.3,1.5,0l23,13.4c0.5,0.3,0.7,0.8,0.7,1.3s-0.3,1-0.7,1.3l-23,13.4C210,35,209.8,35.1,209.5,35.1z M211,9.4V31
				l18.5-10.8L211,9.4z"/>
		</g>
	</g>
	<g>
		<g>
			<path fill="#FFFFFF" d="M180.3,35.7c-4,0-7.9-1.5-11-4.5c-3.1-3.1-4.8-7.4-4.5-11.8c0-0.8,0.8-1.5,1.6-1.4c0.8,0,1.5,0.8,1.4,1.6
				c-0.2,3.5,1.1,7,3.6,9.5c4.9,4.9,12.8,4.9,17.7,0c4.9-4.9,4.9-12.8,0-17.7c-4.9-4.9-12.8-4.9-17.7,0c-0.6,0.6-1.5,0.6-2.1,0
				c-0.6-0.6-0.6-1.5,0-2.1c6-6,15.9-6,21.9,0c6,6,6,15.9,0,21.9C188.3,34.2,184.3,35.7,180.3,35.7z"/>
		</g>
		<g>
			<path fill="#FFFFFF" d="M173.4,12.3h-3c-0.8,0-1.5-0.7-1.5-1.5v-3c0-0.8,0.7-1.5,1.5-1.5s1.5,0.7,1.5,1.5v1.5h1.5
				c0.8,0,1.5,0.7,1.5,1.5S174.3,12.3,173.4,12.3z"/>
		</g>
	</g>
	<g>
	</g>
	<g>
	</g>
	<g>
	</g>
	<g>
	</g>
	<g>
	</g>
	<g>
	</g>
	<g>
	</g>
	<g>
	</g>
	<g>
	</g>
	<g>
	</g>
	<g>
	</g>
	<g>
	</g>
	<g>
	</g>
	<g>
	</g>
	<g>
	</g>
</g>
</svg>
